<?xml version="1.0" standalone="no"?>
<!DOCTYPE svg PUBLIC "-//W3C//DTD SVG 20010904//EN"
 "http://www.w3.org/TR/2001/REC-SVG-20010904/DTD/svg10.dtd">
<svg version="1.0" xmlns="http://www.w3.org/2000/svg"
 width="571.000000pt" height="496.000000pt" viewBox="0 0 571.000000 496.000000"
 preserveAspectRatio="xMidYMid meet">

<g transform="translate(0.000000,496.000000) scale(0.100000,-0.100000)"
fill="#000000" stroke="none">
<path d="M2025 4839 c-587 -44 -1053 -234 -1380 -563 -254 -255 -384 -529
-439 -923 l-6 -43 765 0 765 0 6 28 c36 162 114 262 258 328 164 75 453 72
607 -6 64 -33 134 -104 159 -163 28 -64 37 -171 20 -232 -27 -97 -127 -171
-295 -220 -149 -43 -329 -68 -805 -110 -984 -89 -1512 -460 -1636 -1150 -25
-138 -25 -441 0 -578 33 -186 86 -328 165 -450 203 -310 499 -484 956 -564 77
-13 158 -17 355 -17 271 0 339 7 548 60 310 79 580 282 749 564 30 50 54 79
66 80 16 0 17 -22 17 -320 l0 -320 775 0 775 0 0 1624 c0 1782 3 1701 -60
1888 -53 156 -143 312 -260 446 -266 305 -740 535 -1260 611 -266 39 -578 50
-845 30z m765 -3135 c-25 -119 -118 -260 -224 -341 -70 -53 -194 -114 -281
-138 -33 -9 -112 -19 -175 -22 -190 -8 -322 31 -418 125 -67 66 -94 128 -100
227 -6 113 11 183 62 258 98 143 235 207 561 262 182 31 369 76 490 118 l90
32 3 -235 c1 -137 -2 -256 -8 -286z"/>
</g>
</svg>
